HIERARCHY
ROOT Hips
{
  OFFSET 5.72205e-005 65.662 3.42586
  CHANNELS 6 Xposition Yposition Zposition Zrotation Xrotation Yrotation
  JOINT Chest
  {
    OFFSET 0 8.7983 -4.7612
    CHANNELS 3 Zrotation Xrotation Yrotation
    JOINT Chest2
    {
      OFFSET 0 8.0291 0.4195
      CHANNELS 3 Zrotation Xrotation Yrotation
      JOINT Chest3
      {
        OFFSET 0 9.9351 -2.2114
        CHANNELS 3 Zrotation Xrotation Yrotation
        JOINT Neck
        {
          OFFSET 0 22.3885 -0.4656
          CHANNELS 3 Zrotation Xrotation Yrotation
          JOINT Head
          {
            OFFSET -0.0001 12.643 3.4389
            CHANNELS 3 Zrotation Xrotation Yrotation
            End Site
            {
              OFFSET 0.0001 17.6655 0.5274
            }
          }
        }
        JOINT LeftCollar
        {
          OFFSET 2.2603 21.606 7.4023
          CHANNELS 3 Zrotation Xrotation Yrotation
          JOINT LeftShoulder
          {
            OFFSET 13.5163 -1.1332 -5.0146
            CHANNELS 3 Zrotation Xrotation Yrotation
            JOINT LeftElbow
            {
              OFFSET -0.0995 -28.05 -0.2431
              CHANNELS 3 Zrotation Xrotation Yrotation
              JOINT LeftWrist
              {
                OFFSET 0.0679 -23.3996 -0.1402
                CHANNELS 3 Zrotation Xrotation Yrotation
                JOINT LeftFinger1
                {
                  OFFSET 0.7932 -9.069 2.5189
                  CHANNELS 3 Zrotation Xrotation Yrotation
                  JOINT LeftFinger11
                  {
                    OFFSET -0.8272 -3.3923 0.5977
                    CHANNELS 3 Zrotation Xrotation Yrotation
                    JOINT LeftFinger12
                    {
                      OFFSET -0.5649 -2.3158 0.4082
                      CHANNELS 3 Zrotation Xrotation Yrotation
                      End Site
                      {
                        OFFSET -0.4919 -1.6479 0.2673
                      }
                    }
                  }
                }
                JOINT LeftFinger2
                {
                  OFFSET 0.9159 -9.2044 0.2193
                  CHANNELS 3 Zrotation Xrotation Yrotation
                  JOINT LeftFinger21
                  {
                    OFFSET 0.0117 -4.1944 -0.0248
                    CHANNELS 3 Zrotation Xrotation Yrotation
                    JOINT LeftFinger22
                    {
                      OFFSET 0.0071 -2.3249 -0.0142
                      CHANNELS 3 Zrotation Xrotation Yrotation
                      End Site
                      {
                        OFFSET -0.1475 -2.0882 0.0028
                      }
                    }
                  }
                }
                JOINT LeftFinger3
                {
                  OFFSET 0.6113 -8.7231 -2.0637
                  CHANNELS 3 Zrotation Xrotation Yrotation
                  JOINT LeftFinger31
                  {
                    OFFSET -0.1927 -3.8059 -0.2383
                    CHANNELS 3 Zrotation Xrotation Yrotation
                    JOINT LeftFinger32
                    {
                      OFFSET -0.1091 -2.1688 -0.1362
                      CHANNELS 3 Zrotation Xrotation Yrotation
                      End Site
                      {
                        OFFSET -0.2358 -1.9176 -0.0906
                      }
                    }
                  }
                }
                JOINT LeftFinger4
                {
                  OFFSET -0.6151 -8.0947 -3.5641
                  CHANNELS 3 Zrotation Xrotation Yrotation
                  JOINT LeftFinger41
                  {
                    OFFSET -0.4882 -2.341 -0.6462
                    CHANNELS 3 Zrotation Xrotation Yrotation
                    JOINT LeftFinger42
                    {
                      OFFSET -0.3575 -1.7167 -0.4742
                      CHANNELS 3 Zrotation Xrotation Yrotation
                      End Site
                      {
                        OFFSET -0.4187 -1.5237 -0.3496
                      }
                    }
                  }
                }
                JOINT LeftFinger0
                {
                  OFFSET -1.42 -1.8761 1.4223
                  CHANNELS 3 Zrotation Xrotation Yrotation
                  JOINT LeftFinger01
                  {
                    OFFSET -1.1471 -3.4929 2.6334
                    CHANNELS 3 Zrotation Xrotation Yrotation
                    JOINT LeftFinger02
                    {
                      OFFSET -0.823 -2.3 1.6571
                      CHANNELS 3 Zrotation Xrotation Yrotation
                      End Site
                      {
                        OFFSET -0.5822 -1.6914 1.1582
                      }
                    }
                  }
                }
              }
            }
          }
        }
        JOINT RightCollar
        {
          OFFSET -2.2603 21.606 7.4023
          CHANNELS 3 Zrotation Xrotation Yrotation
          JOINT RightShoulder
          {
            OFFSET -13.5187 -1.1334 -5.0155
            CHANNELS 3 Zrotation Xrotation Yrotation
            JOINT RightElbow
            {
              OFFSET 0.0994 -28.0499 -0.2431
              CHANNELS 3 Zrotation Xrotation Yrotation
              JOINT RightWrist
              {
                OFFSET -0.0679 -23.3996 -0.1402
                CHANNELS 3 Zrotation Xrotation Yrotation
                JOINT RightFinger1
                {
                  OFFSET -0.7932 -9.0691 2.5189
                  CHANNELS 3 Zrotation Xrotation Yrotation
                  JOINT RightFinger11
                  {
                    OFFSET 0.8272 -3.3923 0.5977
                    CHANNELS 3 Zrotation Xrotation Yrotation
                    JOINT RightFinger12
                    {
                      OFFSET 0.565 -2.3158 0.4082
                      CHANNELS 3 Zrotation Xrotation Yrotation
                      End Site
                      {
                        OFFSET 0.4919 -1.6479 0.2673
                      }
                    }
                  }
                }
                JOINT RightFinger2
                {
                  OFFSET -0.916 -9.2044 0.2193
                  CHANNELS 3 Zrotation Xrotation Yrotation
                  JOINT RightFinger21
                  {
                    OFFSET -0.0117 -4.1944 -0.0248
                    CHANNELS 3 Zrotation Xrotation Yrotation
                    JOINT RightFinger22
                    {
                      OFFSET -0.0071 -2.3249 -0.0142
                      CHANNELS 3 Zrotation Xrotation Yrotation
                      End Site
                      {
                        OFFSET 0.1475 -2.0882 0.0028
                      }
                    }
                  }
                }
                JOINT RightFinger3
                {
                  OFFSET -0.6113 -8.7231 -2.0637
                  CHANNELS 3 Zrotation Xrotation Yrotation
                  JOINT RightFinger31
                  {
                    OFFSET 0.1927 -3.8059 -0.2383
                    CHANNELS 3 Zrotation Xrotation Yrotation
                    JOINT RightFinger32
                    {
                      OFFSET 0.1091 -2.1688 -0.1362
                      CHANNELS 3 Zrotation Xrotation Yrotation
                      End Site
                      {
                        OFFSET 0.2358 -1.9176 -0.0906
                      }
                    }
                  }
                }
                JOINT RightFinger4
                {
                  OFFSET 0.6151 -8.0947 -3.564
                  CHANNELS 3 Zrotation Xrotation Yrotation
                  JOINT RightFinger41
                  {
                    OFFSET 0.4882 -2.341 -0.6462
                    CHANNELS 3 Zrotation Xrotation Yrotation
                    JOINT RightFinger42
                    {
                      OFFSET 0.3574 -1.7166 -0.4742
                      CHANNELS 3 Zrotation Xrotation Yrotation
                      End Site
                      {
                        OFFSET 0.4187 -1.5237 -0.3496
                      }
                    }
                  }
                }
                JOINT RightFinger0
                {
                  OFFSET 1.4199 -1.8761 1.4221
                  CHANNELS 3 Zrotation Xrotation Yrotation
                  JOINT RightFinger01
                  {
                    OFFSET 1.1472 -3.4929 2.6336
                    CHANNELS 3 Zrotation Xrotation Yrotation
                    JOINT RightFinger02
                    {
                      OFFSET 0.8229 -2.3 1.6571
                      CHANNELS 3 Zrotation Xrotation Yrotation
                      End Site
                      {
                        OFFSET 0.5822 -1.6914 1.1582
                      }
                    }
                  }
                }
              }
            }
          }
        }
      }
    }
  }
  JOINT RightHip
  {
    OFFSET -9.412 3.9771 -0.7758
    CHANNELS 3 Zrotation Xrotation Yrotation
    JOINT RightKnee
    {
      OFFSET -0.7531 -40.938 0
      CHANNELS 3 Zrotation Xrotation Yrotation
      JOINT RightAnkle
      {
        OFFSET 0 -40.1986 0
        CHANNELS 3 Zrotation Xrotation Yrotation
        JOINT RightToe
        {
          OFFSET 0 -4.4182 9.239
          CHANNELS 3 Zrotation Xrotation Yrotation
          End Site
          {
            OFFSET 0 0 6.1981
          }
        }
      }
    }
  }
  JOINT LeftHip
  {
    OFFSET 9.4119 3.9773 -0.7758
    CHANNELS 3 Zrotation Xrotation Yrotation
    JOINT LeftKnee
    {
      OFFSET 0.7532 -40.9383 0
      CHANNELS 3 Zrotation Xrotation Yrotation
      JOINT LeftAnkle
      {
        OFFSET 0 -40.1986 0
        CHANNELS 3 Zrotation Xrotation Yrotation
        JOINT LeftToe
        {
          OFFSET 0 -4.4182 9.239
          CHANNELS 3 Zrotation Xrotation Yrotation
          End Site
          {
            OFFSET 0 0 6.1981
          }
        }
      }
    }
  }
}
MOTION
Frames:	6
Frame Time:	0.0333333
-0.35273 2.13834 9.73089 179.999 -89.9981 179.999 -0.0237918 10.2862 -0.157283 -0.0187973 20.5725 -0.318043 -0.0187972 20.5725 -0.318043 1.60783 8.37685 26.5875 -0.108282 0.690612 24.9915 -7.73476 -0.188751 -3.51607 11.0414 33.848 21.9383 -21.1905 -71.1946 -48.5299 -1.50542 -6.58517 -21.817 -2.99851e-006 -6.41631e-007 -2.80307e-006 -9.692e-006 6.07892e-006 -4.14768e-006 5.83964e-006 -5.26504e-006 -2.02631e-006 -2.99851e-006 -6.41631e-007 -2.80307e-006 -0.0128231 0.0023276 8.95912e-005 -1.67337e-006 -1.16743e-006 -3.3622e-007 -2.99851e-006 -6.41631e-007 -2.80307e-006 -0.0160411 0.0029934 0.000860656 -1.67337e-006 -2.52748e-006 -3.36238e-007 -2.99851e-006 -6.41631e-007 -2.80307e-006 -0.0126215 0.00311908 0.0028319 -1.32443e-006 2.9886e-007 -2.46712e-006 -2.99851e-006 -6.41631e-007 -2.80307e-006 -9.692e-006 6.07892e-006 -4.14768e-006 5.83964e-006 -5.26504e-006 -2.02631e-006 -0.642406 -8.07744 12.115 -21.6319 -14.5755 15.2726 66.1712 -56.7895 18.8871 -31.9734 3.63872 0.330705 3.18055e-015 1.59028e-015 1.59028e-015 9.54166e-015 0 7.95139e-016 -0 -1.59028e-015 -0 3.18055e-015 1.59028e-015 1.59028e-015 0.0129507 0.00230895 -8.93033e-005 -2.97362e-006 3.87017e-007 1.63176e-006 3.18055e-015 1.59028e-015 1.59028e-015 0.0163454 0.00304028 -0.000882391 3.18055e-015 -4.77083e-015 -0 3.18055e-015 1.59028e-015 1.59028e-015 0.0145759 0.00367227 -0.00326369 3.18055e-015 -1.59028e-015 7.95139e-016 3.18055e-015 1.59028e-015 1.59028e-015 9.54166e-015 0 7.95139e-016 -0 -1.59028e-015 -0 -43.7775 -40.9369 -6.67262 175.732 69.3474 -178.333 -27.7731 29.3591 50.9465 -1.48692e-006 -4.90584e-008 3.77847e-007 9.06925 4.18798 -25.5161 -5.63541 4.31238 0.147551 13.4595 -6.03554 4.73082 -1.64693e-006 1.00672e-005 -1.46735e-007 
-0.352302 2.13843 9.73093 180 -89.9981 180 -0.0278186 10.103 -0.156029 -0.0278363 20.2062 -0.314514 -0.0278363 20.2062 -0.314514 1.4971 9.06368 26.6073 -0.100688 0.998092 24.9922 -7.23895 0.057498 -3.27762 10.5559 33.8459 22.1472 -21.8894 -71.2304 -49.1998 -1.96399 -6.01162 -22.1849 1.59028e-015 3.18055e-015 -5.81445e-015 1.39149e-015 0 7.45443e-016 -3.97252e-031 3.18055e-015 7.15625e-015 1.59028e-015 3.18055e-015 -5.81445e-015 -0.0128213 0.00232771 9.43261e-005 -3.77691e-015 -3.18055e-015 1.58531e-014 1.59028e-015 3.18055e-015 -5.81445e-015 -0.0160646 0.00301187 0.000867615 7.95139e-016 0 -7.95139e-015 1.59028e-015 3.18055e-015 -5.81445e-015 -0.012593 0.0031231 0.00283141 -2.38542e-015 4.77083e-015 -4.42296e-015 1.59028e-015 3.18055e-015 -5.81445e-015 1.39149e-015 0 7.45443e-016 -3.97252e-031 3.18055e-015 7.15625e-015 -0.213479 -7.53921 12.3813 -21.8784 -14.681 15.1617 64.8222 -56.1068 17.4128 -31.5897 3.96903 0.126274 3.18055e-015 0 1.59028e-015 6.36111e-015 3.18055e-015 -0 3.18055e-015 0 7.95139e-016 3.18055e-015 0 1.59028e-015 0.012969 0.00232184 -8.77212e-005 2.20695e-032 -1.59028e-015 7.95139e-016 3.18055e-015 0 1.59028e-015 0.0163473 0.00304173 -0.000877663 -4.41391e-032 3.18055e-015 7.95139e-016 3.18055e-015 0 1.59028e-015 0.0145773 0.00368011 -0.00326395 -0 0 7.95139e-016 3.18055e-015 0 1.59028e-015 6.36111e-015 3.18055e-015 -0 3.18055e-015 0 7.95139e-016 -42.646 -41.0327 -5.35775 175.733 69.3463 -178.33 -26.5995 29.6581 50.3458 -3.57329e-008 0 1.00561e-007 9.06874 4.18737 -25.516 -5.63549 4.31346 0.147658 13.4597 -6.03586 4.73085 2.47039e-006 4.60663e-007 2.20103e-007 
-0.351874 2.1385 9.73095 -180 -89.9981 -180 -0.0318318 9.91985 -0.154809 -0.0368143 19.8398 -0.311098 -0.0368142 19.8398 -0.311098 1.38585 9.75076 26.6284 -0.0931012 1.30561 24.9927 -6.744 0.305886 -3.04122 10.0703 33.8425 22.3562 -22.5907 -71.2636 -49.8722 -2.41868 -5.43484 -22.5481 9.93923e-016 3.18055e-015 -4.96962e-016 -1.98785e-016 0 -3.97569e-016 -5.96354e-016 4.77083e-015 9.39258e-015 9.93923e-016 3.18055e-015 -4.96962e-016 -0.0127827 0.00232459 8.30088e-005 -2.99577e-006 -1.41453e-007 -2.80249e-006 9.93923e-016 3.18055e-015 -4.96962e-016 -0.0160406 0.0030006 0.000856368 2.80252e-006 -7.87672e-006 -1.12486e-005 9.93923e-016 3.18055e-015 -4.96962e-016 -0.0125894 0.00312269 0.0028262 -2.5842e-015 0 -2.5345e-015 9.93923e-016 3.18055e-015 -4.96962e-016 -1.98785e-016 0 -3.97569e-016 -5.96354e-016 4.77083e-015 9.39258e-015 0.212612 -6.99882 12.6434 -22.1254 -14.786 15.0502 63.5271 -55.4048 15.9917 -31.2046 4.29811 -0.0805304 -3.18055e-015 4.77083e-015 1.59028e-015 -6.36111e-015 1.59028e-015 -0 0 3.18055e-015 -0 -3.18055e-015 4.77083e-015 1.59028e-015 0.0129445 0.0023134 -8.91304e-005 0 3.18055e-015 -0 -3.18055e-015 4.77083e-015 1.59028e-015 0.0163235 0.00303583 -0.000873838 2.20695e-032 -1.59028e-015 7.95139e-016 -3.18055e-015 4.77083e-015 1.59028e-015 0.014591 0.00367668 -0.00327248 -3.18055e-015 -1.59028e-015 -0 -3.18055e-015 4.77083e-015 1.59028e-015 -6.36111e-015 1.59028e-015 -0 0 3.18055e-015 -0 -41.5083 -41.1096 -4.03691 175.733 69.3445 -178.326 -25.4175 29.9464 49.7354 -8.00775e-007 -1.63665e-006 -2.83783e-007 9.06856 4.18773 -25.516 -5.63548 4.31289 0.147595 13.46 -6.03555 4.73085 1.54565e-006 1.14833e-005 -1.20238e-007 
-0.351444 2.13856 9.73098 -179.999 -89.9981 -179.999 -0.0358318 9.73662 -0.153623 -0.0457329 19.4733 -0.307793 -0.045733 19.4734 -0.307794 1.27407 10.4381 26.651 -0.0855193 1.61313 24.9933 -6.24993 0.556377 -2.8069 9.58464 33.8375 22.5651 -23.2944 -71.2942 -50.547 -2.86949 -4.85493 -22.9065 1.39149e-015 3.18055e-015 1.09332e-015 -1.98785e-016 3.18055e-015 7.55382e-015 3.97569e-016 0 -1.78906e-015 1.39149e-015 3.18055e-015 1.09332e-015 -0.0128245 0.00232364 8.94798e-005 -1.19271e-015 3.18055e-015 1.36664e-014 1.39149e-015 3.18055e-015 1.09332e-015 -0.0160579 0.00299479 0.000854882 2.75869e-032 1.59028e-015 -9.93923e-016 1.39149e-015 3.18055e-015 1.09332e-015 -0.0125667 0.00311872 0.00282083 -1.19271e-015 7.95139e-015 -4.77083e-015 1.39149e-015 3.18055e-015 1.09332e-015 -1.98785e-016 3.18055e-015 7.55382e-015 3.97569e-016 0 -1.78906e-015 0.635898 -6.45627 12.9012 -22.3726 -14.8905 14.9382 62.2839 -54.6846 14.6222 -30.818 4.62583 -0.289651 2.11883e-006 7.20414e-006 1.29991e-007 3.18055e-015 1.59028e-015 -3.97569e-016 -2.11883e-006 -7.20414e-006 -1.29992e-007 2.11883e-006 7.20414e-006 1.29991e-007 0.0129298 0.00231013 -8.72718e-005 -3.18055e-015 -1.59028e-015 -0 2.11883e-006 7.20414e-006 1.29991e-007 0.0163218 0.00302628 -0.000873561 -4.41391e-032 3.18055e-015 7.95139e-016 2.11883e-006 7.20414e-006 1.29991e-007 0.0145642 0.00366528 -0.0032543 4.41391e-032 3.18055e-015 -7.95139e-016 2.11883e-006 7.20414e-006 1.29991e-007 3.18055e-015 1.59028e-015 -3.97569e-016 -2.11883e-006 -7.20414e-006 -1.29992e-007 -40.3669 -41.1662 -2.71213 175.733 69.3433 -178.322 -24.2273 30.2241 49.1159 3.56533e-008 2.47672e-009 -1.00589e-007 9.06827 4.18793 -25.516 -5.63541 4.31276 0.147575 13.4603 -6.03545 4.73084 -5.72591e-007 9.7907e-006 3.62776e-006 
-0.351011 2.13861 9.73101 -179.999 -89.9981 -179.999 -0.0398185 9.55332 -0.152471 -0.0545935 19.1068 -0.3046 -0.0545935 19.1069 -0.304601 1.16172 11.1255 26.675 -0.0779302 1.9207 24.9938 -5.75676 0.808911 -2.57468 9.09902 33.8311 22.774 -24.0003 -71.322 -51.224 -3.31644 -4.27201 -23.2601 -7.95139e-016 1.59028e-015 2.5345e-015 -2.87859e-006 -9.80323e-007 -1.59238e-006 -3.97569e-016 -4.77083e-015 4.37326e-015 -7.95139e-016 1.59028e-015 2.5345e-015 -0.0128237 0.00232524 8.43364e-005 -1.67311e-006 -2.47018e-006 -3.37689e-007 -7.95139e-016 1.59028e-015 2.5345e-015 -0.0160524 0.00298401 0.000850678 2.5842e-015 4.77083e-015 4.91992e-015 -7.95139e-016 1.59028e-015 2.5345e-015 -0.0125712 0.00311249 0.00282236 -4.37326e-015 1.11319e-014 2.28602e-015 -7.95139e-016 1.59028e-015 2.5345e-015 -2.87859e-006 -9.80323e-007 -1.59238e-006 -3.97569e-016 -4.77083e-015 4.37326e-015 1.05642 -5.9117 13.1548 -22.6202 -14.9946 14.8257 61.0916 -53.9474 13.3028 -30.43 4.95223 -0.501196 -3.1163e-006 -4.95522e-007 1.06786e-006 9.93129e-032 4.77083e-015 -1.19271e-015 4.41391e-032 1.59028e-015 -1.59028e-015 -3.1163e-006 -4.95522e-007 1.06786e-006 0.0129433 0.00230815 -8.43238e-005 -3.18055e-015 3.18055e-015 -1.19271e-015 -3.1163e-006 -4.95522e-007 1.06786e-006 0.0163273 0.00303432 -0.000865791 -7.18985e-006 -8.16896e-006 -7.53471e-006 -3.1163e-006 -4.95522e-007 1.06786e-006 0.0145781 0.00367388 -0.00325959 3.18055e-015 3.18055e-015 3.97569e-016 -3.1163e-006 -4.95522e-007 1.06786e-006 9.93129e-032 4.77083e-015 -1.19271e-015 4.41391e-032 1.59028e-015 -1.59028e-015 -39.222 -41.2033 -1.3839 175.733 69.3418 -178.318 -23.0294 30.4907 48.4874 -2.083e-006 6.36876e-006 5.22736e-007 9.068 4.18807 -25.516 -5.63538 4.3126 0.147567 13.4606 -6.0353 4.73083 2.36911e-006 -4.86745e-006 -4.6868e-008 
-0.350578 2.13866 9.73104 180 -89.9981 180 -0.0437917 9.37009 -0.151352 -0.0633966 18.7403 -0.301516 -0.0633966 18.7403 -0.301516 1.04879 11.8131 26.7004 -0.0703533 2.22827 24.9943 -5.26449 1.06354 -2.34459 8.61347 33.8233 22.9828 -24.7083 -71.3473 -51.903 -3.75961 -3.68623 -23.6091 5.10196e-006 -8.6239e-006 -7.08123e-006 -3.18055e-015 0 -9.44227e-016 3.84867e-006 -7.60815e-007 6.18482e-006 5.10196e-006 -8.6239e-006 -7.08123e-006 -0.0128286 0.00232976 9.57431e-005 2.02538e-006 1.96358e-006 -1.78829e-006 5.10196e-006 -8.6239e-006 -7.08123e-006 -0.0160486 0.00299343 0.000861234 2.17653e-006 -3.2291e-007 5.84702e-006 5.10196e-006 -8.6239e-006 -7.08123e-006 -0.0126067 0.00311777 0.00283747 2.99379e-006 5.85822e-007 2.80219e-006 5.10196e-006 -8.6239e-006 -7.08123e-006 -3.18055e-015 0 -9.44227e-016 3.84867e-006 -7.60815e-007 6.18482e-006 1.47423 -5.36513 13.4042 -22.8682 -15.0982 14.7127 59.9481 -53.1943 12.0315 -30.0404 5.27722 -0.715016 3.18055e-015 9.54166e-015 3.97569e-016 3.18055e-015 1.27222e-014 7.95139e-016 -3.18055e-015 1.11319e-014 1.19271e-015 3.18055e-015 9.54166e-015 3.97569e-016 0.0129579 0.00231554 -9.29096e-005 -4.3502e-006 1.54919e-007 -7.94192e-007 3.18055e-015 9.54166e-015 3.97569e-016 0.0163385 0.00301931 -0.000876114 0 0 -1.19271e-015 3.18055e-015 9.54166e-015 3.97569e-016 0.0145842 0.00368077 -0.0032696 3.18055e-015 -1.59028e-015 -3.97569e-016 3.18055e-015 9.54166e-015 3.97569e-016 3.18055e-015 1.27222e-014 7.95139e-016 -3.18055e-015 1.11319e-014 1.19271e-015 -38.0752 -41.2204 -0.0536468 175.734 69.3403 -178.314 -21.8241 30.746 47.8503 -1.63797e-006 3.1945e-006 -4.65325e-007 9.0676 4.18781 -25.5159 -5.63541 4.3131 0.147616 13.4609 -6.03542 4.73087 1.59861e-006 9.55701e-007 -3.02045e-006 
